# xmcd CD database file
#
# Track frame offsets:
#	150
#	28302
#	46164
#	80266
#	100988
#	128655
#	177962
#	195454
#	213896
#	252240
#
# Disc length: 4414 seconds
#
# Revision: 0
# Processed by: cddbd v1.4PL0 Copyright (c) Steve Scherf et al.
# Submitted via: CDex 1.51
#
DISCID=7e113c0a
DTITLE=Ozric Tentacles - Purgenteffulgent
DYEAR=1998
DGENRE=New Age
TTITLE0=Disolution(The clouds dispers)
TTITLE1=0 - 1
TTITLE2=Phalarn Dawn
TTITLE3=The Domes of G´Bal
TTITLE4=Shaping the Pelm
TTITLE5=Ayurvedic
TTITLE6=Kick Muck
TTITLE7=Agog in the Ether
TTITLE8=Wreltch
TTITLE9=Ayurudesim
EXTD=YEAR: 1998
EXTT0=
EXTT1=
EXTT2=
EXTT3=
EXTT4=
EXTT5=
EXTT6=
EXTT7=
EXTT8=
EXTT9=
PLAYORDER=
